<svg width="600" height="600" viewBox="0 0 600 600" fill="none" xmlns="http://www.w3.org/2000/svg">
<rect width="600" height="600" rx="80" fill="#0F0F0F"/>
<path opacity="0.3" d="M216.667 291.667C158.933 291.667 122.833 229.167 151.717 179.167C158.299 167.765 167.767 158.298 179.168 151.715C190.569 145.133 203.502 141.667 216.667 141.667C274.4 141.667 310.5 204.167 281.617 254.167C275.034 265.568 265.567 275.035 254.166 281.618C242.765 288.201 229.832 291.666 216.667 291.667Z" fill="white"/>
<path d="M383.333 458.333C325.6 458.333 289.5 395.833 318.383 345.833C324.966 334.432 334.433 324.964 345.834 318.382C357.236 311.799 370.168 308.334 383.333 308.333C441.067 308.333 477.167 370.833 448.283 420.833C441.701 432.234 432.233 441.702 420.832 448.285C409.431 454.867 396.498 458.333 383.333 458.333ZM383.333 291.667C325.6 291.667 289.5 229.167 318.383 179.167C324.966 167.765 334.433 158.298 345.834 151.715C357.236 145.133 370.168 141.667 383.333 141.667C441.067 141.667 477.167 204.167 448.283 254.167C441.701 265.568 432.233 275.035 420.832 281.618C409.431 288.201 396.498 291.666 383.333 291.667ZM216.667 458.333C158.933 458.333 122.833 395.833 151.717 345.833C158.299 334.432 167.767 324.964 179.168 318.382C190.569 311.799 203.502 308.334 216.667 308.333C274.4 308.333 310.5 370.833 281.617 420.833C275.034 432.234 265.567 441.702 254.166 448.285C242.765 454.867 229.832 458.333 216.667 458.333Z" fill="white"/>
</svg>
